<svg id="visual" viewBox="0 0 900 600" width="900" height="600" xmlns="http://www.w3.org/2000/svg" xmlns:xlink="http://www.w3.org/1999/xlink" version="1.1"><rect x="0" y="0" width="900" height="600" fill="#f7f7f7"></rect><defs><linearGradient id="grad1_0" x1="33.3%" y1="0%" x2="100%" y2="100%"><stop offset="20%" stop-color="#f7f7f7" stop-opacity="1"></stop><stop offset="80%" stop-color="#f7f7f7" stop-opacity="1"></stop></linearGradient></defs><defs><linearGradient id="grad2_0" x1="0%" y1="0%" x2="66.7%" y2="100%"><stop offset="20%" stop-color="#f7f7f7" stop-opacity="1"></stop><stop offset="80%" stop-color="#f7f7f7" stop-opacity="1"></stop></linearGradient></defs><g transform="translate(900, 0)"><path d="M0 351.5C-37.9 319.4 -75.9 287.3 -109.8 265.2C-143.8 243 -173.7 230.8 -212.8 212.8C-251.9 194.8 -300.1 171 -324.8 134.5C-349.4 98.1 -350.5 49 -351.5 0L0 0Z" fill="#0066FF"></path></g><g transform="translate(0, 600)"><path d="M0 -351.5C41.6 -327.2 83.2 -302.8 115.2 -278.1C147.1 -253.4 169.4 -228.4 207.2 -207.2C244.9 -185.9 298.1 -168.4 324.8 -134.5C351.4 -100.6 351.5 -50.3 351.5 0L0 0Z" fill="#0066FF"></path></g></svg>