<svg id="visual" viewBox="0 0 900 600" width="900" height="600" xmlns="http://www.w3.org/2000/svg" xmlns:xlink="http://www.w3.org/1999/xlink" version="1.1"><rect x="0" y="0" width="900" height="600" fill="#f7f7f7"></rect><defs><linearGradient id="grad1_0" x1="33.3%" y1="100%" x2="100%" y2="0%"><stop offset="20%" stop-color="#f7f7f7" stop-opacity="1"></stop><stop offset="80%" stop-color="#f7f7f7" stop-opacity="1"></stop></linearGradient></defs><defs><linearGradient id="grad2_0" x1="0%" y1="100%" x2="66.7%" y2="0%"><stop offset="20%" stop-color="#f7f7f7" stop-opacity="1"></stop><stop offset="80%" stop-color="#f7f7f7" stop-opacity="1"></stop></linearGradient></defs><g transform="translate(900, 600)"><path d="M-351.5 0C-333 -40.3 -314.5 -80.7 -300.3 -124.4C-286.1 -168.1 -276.2 -215.1 -248.6 -248.6C-221 -282.1 -175.6 -302 -131.3 -316.9C-86.9 -331.8 -43.4 -341.7 0 -351.5L0 0Z" fill="#0066ff"></path></g><g transform="translate(0, 0)"><path d="M351.5 0C317.7 37.6 283.8 75.2 260.5 107.9C237.3 140.6 224.7 168.3 207.9 207.9C191 247.5 169.9 298.9 134.5 324.8C99.2 350.7 49.6 351.1 0 351.5L0 0Z" fill="#0066ff"></path></g></svg>