<svg id="visual" viewBox="0 0 540 960" width="540" height="960" xmlns="http://www.w3.org/2000/svg" xmlns:xlink="http://www.w3.org/1999/xlink" version="1.1"><rect x="0" y="0" width="540" height="960" fill="#f7f7f7"></rect><defs><linearGradient id="grad1_0" x1="0%" y1="0%" x2="100%" y2="100%"><stop offset="30%" stop-color="#f7f7f7" stop-opacity="1"></stop><stop offset="70%" stop-color="#f7f7f7" stop-opacity="1"></stop></linearGradient></defs><defs><linearGradient id="grad2_0" x1="0%" y1="0%" x2="100%" y2="100%"><stop offset="30%" stop-color="#f7f7f7" stop-opacity="1"></stop><stop offset="70%" stop-color="#f7f7f7" stop-opacity="1"></stop></linearGradient></defs><g transform="translate(540, 0)"><path d="M0 324C-40.7 311.3 -81.4 298.5 -116 279.9C-150.6 261.3 -179.1 236.9 -211.4 211.4C-243.8 185.9 -279.9 159.4 -299.3 124C-318.7 88.6 -321.4 44.3 -324 0L0 0Z" fill="#0066ff"></path></g><g transform="translate(0, 960)"><path d="M0 -324C44.5 -322.1 89 -320.2 124 -299.3C159 -278.5 184.6 -238.7 203.6 -203.6C222.7 -168.6 235.1 -138.4 254.1 -105.2C273 -72.1 298.5 -36 324 0L0 0Z" fill="#0066ff"></path></g></svg>