<svg id="visual" viewBox="0 0 675 900" width="675" height="900" xmlns="http://www.w3.org/2000/svg" xmlns:xlink="http://www.w3.org/1999/xlink" version="1.1"><rect x="0" y="0" width="675" height="900" fill="#f7f7f7"></rect><defs><linearGradient id="grad1_0" x1="0%" y1="100%" x2="100%" y2="0%"><stop offset="30%" stop-color="#f7f7f7" stop-opacity="1"></stop><stop offset="70%" stop-color="#f7f7f7" stop-opacity="1"></stop></linearGradient></defs><defs><linearGradient id="grad2_0" x1="0%" y1="100%" x2="100%" y2="0%"><stop offset="30%" stop-color="#f7f7f7" stop-opacity="1"></stop><stop offset="70%" stop-color="#f7f7f7" stop-opacity="1"></stop></linearGradient></defs><g transform="translate(675, 900)"><path d="M-421.9 0C-404.6 -50.5 -387.3 -101 -369.6 -153.1C-351.8 -205.1 -333.6 -258.8 -298.3 -298.3C-263 -337.9 -210.6 -363.3 -158 -381.6C-105.5 -399.8 -52.7 -410.8 0 -421.9L0 0Z" fill="#0066ff"></path></g><g transform="translate(0, 0)"><path d="M421.9 0C420.6 59.7 419.4 119.4 389.8 161.4C360.2 203.5 302.3 227.8 259.5 259.5C216.8 291.2 189.2 330.2 148.5 358.5C107.8 386.7 53.9 404.3 0 421.9L0 0Z" fill="#0066ff"></path></g></svg>