<svg id="visual" viewBox="0 0 540 960" width="540" height="960" xmlns="http://www.w3.org/2000/svg" xmlns:xlink="http://www.w3.org/1999/xlink" version="1.1"><rect x="0" y="0" width="540" height="960" fill="#f7f7f7"></rect><defs><linearGradient id="grad1_0" x1="0%" y1="0%" x2="100%" y2="100%"><stop offset="30%" stop-color="#f7f7f7" stop-opacity="1"></stop><stop offset="70%" stop-color="#f7f7f7" stop-opacity="1"></stop></linearGradient></defs><defs><linearGradient id="grad2_0" x1="0%" y1="0%" x2="100%" y2="100%"><stop offset="30%" stop-color="#f7f7f7" stop-opacity="1"></stop><stop offset="70%" stop-color="#f7f7f7" stop-opacity="1"></stop></linearGradient></defs><g transform="translate(540, 0)"><path d="M0 378C-41.8 347.5 -83.6 316.9 -122.1 294.7C-160.6 272.5 -195.8 258.6 -236.9 236.9C-277.9 215.1 -324.7 185.5 -349.2 144.7C-373.7 103.9 -375.9 51.9 -378 0L0 0Z" fill="#0066ff"></path></g><g transform="translate(0, 960)"><path d="M0 -378C42.7 -349.8 85.4 -321.7 124 -299.3C162.6 -277 197 -260.5 237.6 -237.6C278.1 -214.7 324.8 -185.3 349.2 -144.7C373.6 -104 375.8 -52 378 0L0 0Z" fill="#0066ff"></path></g></svg>